<?xml version="1.0" encoding="utf-8"?>
<!-- Generator: Adobe Illustrator 16.0.4, SVG Export Plug-In . SVG Version: 6.00 Build 0)  -->
<!DOCTYPE svg PUBLIC "-//W3C//DTD SVG 1.1//EN" "http://www.w3.org/Graphics/SVG/1.1/DTD/svg11.dtd">
<svg version="1.1" id="Layer_1" xmlns="http://www.w3.org/2000/svg" xmlns:xlink="http://www.w3.org/1999/xlink" x="0px" y="0px"
	 width="58px" height="36.5px" viewBox="0 0 58 36.5" enable-background="new 0 0 58 36.5" xml:space="preserve">
<g>
	<g>
		<path fill="#EEEEEE" d="M51.629,33.386c-0.765,0.913-2.137,1.034-3.05,0.271L26.053,14.8c-0.913-0.764-1.035-2.136-0.271-3.049
			l2.542-3.035c0.764-0.913,2.136-1.035,3.049-0.271l22.525,18.856c0.913,0.765,1.035,2.136,0.271,3.049L51.629,33.386z"/>
	</g>
	<g>
		<path fill="#EEEEEE" d="M54.23,7.54c0.758,0.918,0.627,2.289-0.291,3.047L31.291,29.295c-0.918,0.759-2.289,0.628-3.047-0.29
			l-2.522-3.052c-0.758-0.918-0.627-2.289,0.291-3.048L48.662,4.198c0.918-0.758,2.289-0.627,3.047,0.291L54.23,7.54z"/>
	</g>
	<g>
		<path fill="#EEEEEE" d="M45.411,6.857c0,0-20.17,17.227-23.248,18.849c-1.651,0.87-3.411,1.655-5.417,1.655
			c-5.294,0-9.593-4.248-9.684-9.52c-1.007,1.779-1.587,3.848-1.587,6.057c0,4.059,1.958,7.814,5.238,10.048l-0.002,0.004
			c2.154,0.959,4.563,1.493,7.134,1.493c3.821,0,7.691-1.66,10.559-3.666c0-0.096,24.32-20.329,24.32-20.329L45.411,6.857z"/>
	</g>
	<path fill="#EEEEEE" d="M4.496,23.19c0-6.946,5.632-12.578,12.578-12.578c2.778,0,4.986,0.986,5.093,1.048
		c0.383,0.191,0.766,0,1.052-0.286l3.946-4.65c0.579-0.755-0.097-1.433-0.097-1.433c-1.37-0.919-4.674-3.462-9.29-3.462
		c-9.652,0-16.996,7.026-16.996,16.582c0,6.794,3.746,12.536,9.379,15.288C6.749,31.45,4.496,27.584,4.496,23.19z"/>
</g>
</svg>
