<?xml version="1.0" encoding="utf-8"?>
<!-- Generator: Adobe Illustrator 16.0.4, SVG Export Plug-In . SVG Version: 6.00 Build 0)  -->
<!DOCTYPE svg PUBLIC "-//W3C//DTD SVG 1.1//EN" "http://www.w3.org/Graphics/SVG/1.1/DTD/svg11.dtd">
<svg version="1.1" id="Layer_1" xmlns="http://www.w3.org/2000/svg" xmlns:xlink="http://www.w3.org/1999/xlink" x="0px" y="0px"
	 width="58px" height="36.5px" viewBox="0 0 58 36.5" enable-background="new 0 0 58 36.5" xml:space="preserve">
<g>
	
		<rect x="23.843" y="17.143" transform="matrix(0.7668 0.6419 -0.6419 0.7668 22.565 -20.2796)" fill="#EEEEEE" width="30.702" height="7.549"/>
</g>
<g>
	
		<rect x="23.843" y="13.222" transform="matrix(0.771 -0.6368 0.6368 0.771 -1.8488 28.8516)" fill="#EEEEEE" width="30.702" height="7.548"/>
</g>
<g>
	<path fill="#EEEEEE" d="M44.145,7.988c0,0-18.372,15.692-21.176,17.169c-1.505,0.793-3.107,1.509-4.936,1.509
		c-4.822,0-8.738-3.869-8.82-8.672c-0.918,1.621-1.446,3.506-1.446,5.517c0,3.697,1.784,7.119,4.771,9.152l-0.002,0.004
		c1.963,0.874,4.156,1.361,6.498,1.361c3.481,0,7.007-1.513,9.618-3.34c0-0.087,22.152-18.518,22.152-18.518L44.145,7.988z"/>
</g>
<path fill="#EEEEEE" d="M6.875,22.866c0-6.327,5.13-11.457,11.457-11.457c2.531,0,4.543,0.897,4.64,0.955
	c0.349,0.174,0.697,0,0.958-0.262l3.595-4.234c0.527-0.688-0.088-1.306-0.088-1.306c-1.248-0.838-4.258-3.154-8.462-3.154
	c-8.792,0-15.481,6.4-15.481,15.104c0,6.189,3.412,11.419,8.543,13.926C8.927,30.39,6.875,26.868,6.875,22.866z"/>
</svg>
